<?xml version="1.0" encoding="UTF-8" standalone="no"?>
<!-- Created with Inkscape (http://www.inkscape.org/) -->

<svg
   width="240.83965mm"
   height="131.64388mm"
   viewBox="0 0 240.83965 131.64388"
   version="1.1"
   id="svg1"
   inkscape:version="1.3.2 (091e20ef0f, 2023-11-25)"
   sodipodi:docname="banner2.svg"
   inkscape:export-filename="banner.png"
   inkscape:export-xdpi="210.92873"
   inkscape:export-ydpi="210.92873"
   xmlns:inkscape="http://www.inkscape.org/namespaces/inkscape"
   xmlns:sodipodi="http://sodipodi.sourceforge.net/DTD/sodipodi-0.dtd"
   xmlns:xlink="http://www.w3.org/1999/xlink"
   xmlns="http://www.w3.org/2000/svg"
   xmlns:svg="http://www.w3.org/2000/svg">
  <sodipodi:namedview
     id="namedview1"
     pagecolor="#000000"
     bordercolor="#999999"
     borderopacity="1"
     inkscape:showpageshadow="2"
     inkscape:pageopacity="0"
     inkscape:pagecheckerboard="0"
     inkscape:deskcolor="#181818"
     inkscape:document-units="mm"
     showguides="true"
     showgrid="false"
     inkscape:zoom="0.70710678"
     inkscape:cx="417.193"
     inkscape:cy="226.98128"
     inkscape:window-width="1366"
     inkscape:window-height="699"
     inkscape:window-x="0"
     inkscape:window-y="32"
     inkscape:window-maximized="1"
     inkscape:current-layer="layer1">
    <inkscape:grid
       type="axonomgrid"
       id="grid8"
       units="mm"
       originx="0"
       originy="0"
       spacingx="0"
       spacingy="25.5"
       empcolor="#0099e5"
       empopacity="0.30196078"
       color="#0099e5"
       opacity="0.14901961"
       empspacing="0"
       dotted="false"
       gridanglex="30"
       gridanglez="30"
       visible="false" />
    <sodipodi:guide
       position="120.41982,131.64388"
       orientation="1,0"
       id="guide5"
       inkscape:locked="false" />
  </sodipodi:namedview>
  <defs
     id="defs1">
    <linearGradient
       id="linearGradient21"
       inkscape:collect="always">
      <stop
         style="stop-color:#ffffff;stop-opacity:0.28600004;"
         offset="0"
         id="stop20" />
      <stop
         style="stop-color:#5f5f5f;stop-opacity:0;"
         offset="1"
         id="stop21" />
    </linearGradient>
    <linearGradient
       id="linearGradient12"
       inkscape:collect="always">
      <stop
         style="stop-color:#ffffff;stop-opacity:1;"
         offset="0"
         id="stop12" />
      <stop
         style="stop-color:#ffffff;stop-opacity:0;"
         offset="1"
         id="stop13" />
    </linearGradient>
    <linearGradient
       id="linearGradient5"
       inkscape:collect="always">
      <stop
         style="stop-color:#a4a4a4;stop-opacity:0.286"
         offset="0"
         id="stop5" />
      <stop
         style="stop-color:#5f5f5f;stop-opacity:0;"
         offset="1"
         id="stop8" />
    </linearGradient>
    <linearGradient
       id="linearGradient6"
       inkscape:collect="always">
      <stop
         style="stop-color:#414141;stop-opacity:1;"
         offset="0"
         id="stop6" />
      <stop
         style="stop-color:#0b0b0b;stop-opacity:0.21065801;"
         offset="1"
         id="stop7" />
    </linearGradient>
    <rect
       x="170.38713"
       y="269.54355"
       width="527.04779"
       height="262.58029"
       id="rect2" />
    <rect
       x="170.38713"
       y="269.54355"
       width="527.04779"
       height="262.58029"
       id="rect2-3" />
    <linearGradient
       inkscape:collect="always"
       xlink:href="#linearGradient6"
       id="linearGradient7"
       x1="662.74725"
       y1="318.87949"
       x2="662.74677"
       y2="141.14409"
       gradientUnits="userSpaceOnUse" />
    <linearGradient
       inkscape:collect="always"
       xlink:href="#linearGradient21"
       id="linearGradient8"
       x1="323.01584"
       y1="332.75461"
       x2="323.01584"
       y2="281.50354"
       gradientUnits="userSpaceOnUse" />
    <rect
       x="170.38713"
       y="269.54355"
       width="527.04779"
       height="262.58029"
       id="rect2-2" />
    <rect
       x="170.38713"
       y="269.54355"
       width="527.04779"
       height="262.58029"
       id="rect2-7" />
    <linearGradient
       inkscape:collect="always"
       xlink:href="#linearGradient5"
       id="linearGradient11"
       gradientUnits="userSpaceOnUse"
       x1="323.01584"
       y1="332.75461"
       x2="323.01584"
       y2="281.50354" />
    <linearGradient
       inkscape:collect="always"
       xlink:href="#linearGradient12"
       id="linearGradient13"
       x1="323.01584"
       y1="332.75461"
       x2="323.01584"
       y2="281.50354"
       gradientUnits="userSpaceOnUse" />
    <rect
       x="170.38713"
       y="269.54355"
       width="527.04779"
       height="262.58029"
       id="rect2-7-6" />
    <linearGradient
       inkscape:collect="always"
       xlink:href="#linearGradient5"
       id="linearGradient11-0"
       gradientUnits="userSpaceOnUse"
       x1="323.01584"
       y1="332.75461"
       x2="323.01584"
       y2="281.50354" />
    <rect
       x="170.38713"
       y="269.54355"
       width="527.04779"
       height="262.58029"
       id="rect2-7-7" />
    <rect
       x="170.38713"
       y="269.54355"
       width="527.04779"
       height="262.58029"
       id="rect2-3-1" />
  </defs>
  <g
     inkscape:label="Layer 1"
     inkscape:groupmode="layer"
     id="layer1"
     transform="translate(-0.23767509,-89.761749)"
     style="display:inline">
    <rect
       style="display:inline;fill:#000000;fill-opacity:1;stroke:none;stroke-width:0.661458;stroke-linecap:round;stroke-linejoin:round;stroke-dasharray:none;stroke-dashoffset:0;stroke-opacity:1"
       id="rect5"
       width="240.83965"
       height="131.64388"
       x="0.23767509"
       y="89.761749" />
    <g
       id="g5"
       transform="translate(-542.17223,-76.057838)"
       style="stroke:#0b0b0b;fill:none">
      <path
         id="path3"
         style="color:#000000;fill:url(#linearGradient7);stroke:none;stroke-linecap:round;stroke-linejoin:round;-inkscape-stroke:none;fill-opacity:1"
         d="M 662.66148 12.942097 A 0.33072901 0.33072901 0 0 0 662.59327 12.99429 L 662.5819 12.974653 L 640.49797 25.724779 L 618.41405 38.474388 L 596.33013 51.224515 L 574.24827 63.974641 L 552.16383 76.724767 L 530.07991 89.474376 L 507.99599 102.2245 L 485.91206 114.97463 L 463.82814 127.72475 L 441.74628 140.47436 L 419.66236 153.22449 L 397.57792 165.97462 L 375.494 178.72474 L 353.41007 191.47435 L 331.32615 204.22448 L 309.24429 216.9746 L 309.57399 217.54873 L 331.49203 204.89472 L 352.91294 217.26193 L 331.32615 229.72473 L 331.65843 230.29886 L 353.57595 217.64485 L 374.99687 230.01205 L 353.41007 242.47486 L 353.74235 243.04898 L 375.65936 230.39394 L 397.08079 242.76166 L 375.494 255.22447 L 375.82421 255.79859 L 397.74328 243.14407 L 419.16523 255.51179 L 397.57792 267.97459 L 397.90813 268.54872 L 419.82721 255.89368 L 441.24915 268.2614 L 419.66236 280.72472 L 419.99205 281.29884 L 441.91113 268.6438 L 463.33101 281.01152 L 441.74628 293.47484 L 442.07598 294.04897 L 463.99402 281.39496 L 485.41493 293.76165 L 463.82814 306.22445 L 464.16042 306.79858 L 486.07846 294.14509 L 507.49886 306.51177 L 485.91206 318.97458 L 486.24434 319.5487 L 508.16135 306.89366 L 529.58278 319.26138 L 507.99599 331.72471 L 508.3262 332.29883 L 530.24527 319.64379 L 551.6667 332.01151 L 530.07991 344.47483 L 530.41012 345.04896 L 552.3292 332.39392 L 573.75114 344.76164 L 552.16383 357.22444 L 552.49404 357.79908 L 574.41312 345.14404 L 595.83248 357.51176 L 574.24827 369.97457 L 574.57797 370.54869 L 596.49601 357.89468 L 617.91692 370.26189 L 596.33013 382.72469 L 596.66189 383.29882 L 618.57993 370.64481 L 640.00085 383.01201 L 618.41405 395.47482 L 618.74633 396.04894 L 640.66334 383.3939 L 662.08477 395.76162 L 640.49797 408.22443 L 640.82819 408.79907 L 662.74675 396.14403 L 684.66582 408.79907 A 0.33072901 0.33072901 0 0 0 685.11696 408.67763 A 0.33072901 0.33072901 0 0 0 684.99603 408.22443 L 663.40924 395.76162 L 684.83067 383.3939 L 706.74819 396.04894 A 0.33072901 0.33072901 0 0 0 707.2014 395.92751 A 0.33072901 0.33072901 0 0 0 707.07996 395.47482 L 685.49316 383.0115 L 706.91408 370.64429 L 728.83212 383.29882 A 0.33072901 0.33072901 0 0 0 729.28532 383.1779 A 0.33072901 0.33072901 0 0 0 729.16388 382.72469 L 707.57708 370.26189 L 728.998 357.89468 L 750.91604 370.54869 A 0.33072901 0.33072901 0 0 0 751.36718 370.42777 A 0.33072901 0.33072901 0 0 0 751.24625 369.97457 L 729.66152 357.51176 L 751.08141 345.14404 L 772.99996 357.79908 A 0.33072901 0.33072901 0 0 0 773.4511 357.67764 A 0.33072901 0.33072901 0 0 0 773.33018 357.22444 L 751.74338 344.76164 L 773.16481 332.39392 L 795.08389 345.04896 A 0.33072901 0.33072901 0 0 0 795.53502 344.92752 A 0.33072901 0.33072901 0 0 0 795.4141 344.47483 L 773.8273 332.01151 L 795.24925 319.64379 L 817.16781 332.29883 A 0.33072901 0.33072901 0 0 0 817.61895 332.17791 A 0.33072901 0.33072901 0 0 0 817.49802 331.72471 L 795.91123 319.26138 L 817.33266 306.89366 L 839.25018 319.5487 A 0.33072901 0.33072901 0 0 0 839.70287 319.42778 A 0.33072901 0.33072901 0 0 0 839.58195 318.97458 L 817.99515 306.51177 L 839.41607 294.14457 L 861.33411 306.79858 A 0.33072901 0.33072901 0 0 0 861.78731 306.67766 A 0.33072901 0.33072901 0 0 0 861.66587 306.22445 L 840.07907 293.76165 L 861.49999 281.39444 L 883.41803 294.04897 A 0.33072901 0.33072901 0 0 0 883.86917 293.92753 A 0.33072901 0.33072901 0 0 0 883.74824 293.47484 L 862.163 281.01152 L 883.5834 268.6438 L 905.50195 281.29884 A 0.33072901 0.33072901 0 0 0 905.95309 281.17792 A 0.33072901 0.33072901 0 0 0 905.83217 280.72472 L 884.24537 268.2614 L 905.66732 255.89368 L 927.58588 268.54872 A 0.33072901 0.33072901 0 0 0 928.03701 268.42779 A 0.33072901 0.33072901 0 0 0 927.91609 267.97459 L 906.32929 255.51179 L 927.75073 243.14407 L 949.6698 255.79859 A 0.33072901 0.33072901 0 0 0 950.12094 255.67767 A 0.33072901 0.33072901 0 0 0 950.00001 255.22447 L 928.41322 242.76166 L 949.83465 230.39394 L 971.75217 243.04898 A 0.33072901 0.33072901 0 0 0 972.20486 242.92754 A 0.33072901 0.33072901 0 0 0 972.08394 242.47486 L 950.49714 230.01153 L 971.91806 217.64433 L 993.8361 230.29886 A 0.33072901 0.33072901 0 0 0 994.2893 230.17793 A 0.33072901 0.33072901 0 0 0 994.16786 229.72473 L 972.58106 217.26141 L 994.00198 204.8942 L 1015.92 217.54873 A 0.33072901 0.33072901 0 0 0 1016.3712 217.42781 A 0.33072901 0.33072901 0 0 0 1016.2502 216.9746 L 994.16786 204.22448 L 972.08394 191.47435 L 950.00001 178.72474 L 927.91609 165.97462 L 905.83217 153.22449 L 883.74824 140.47436 L 861.66587 127.72475 L 839.58195 114.97463 L 817.49802 102.2245 L 795.4141 89.474376 L 773.33018 76.724767 L 751.24625 63.974641 L 729.16388 51.224515 L 707.07996 38.474388 L 684.99603 25.724779 L 662.91211 12.974653 A 0.33072901 0.33072901 0 0 0 662.66148 12.942097 z M 662.74675 13.643863 L 684.16869 26.011583 L 662.74675 38.379304 L 641.32531 26.011583 L 662.74675 13.643863 z M 640.66334 26.393989 L 662.08425 38.761709 L 640.66334 51.12943 L 619.24397 38.761709 L 640.66334 26.393989 z M 684.83067 26.393989 L 706.25158 38.762226 L 684.83067 51.12943 L 663.40975 38.761709 L 684.83067 26.393989 z M 662.74675 39.144115 L 684.16869 51.511836 L 662.74726 63.879556 L 641.32531 51.511836 L 662.74675 39.144115 z M 706.91459 39.144115 L 728.33499 51.511319 L 706.91408 63.879039 L 685.49316 51.511836 L 706.91459 39.144115 z M 618.57993 39.145149 L 640.00085 51.511836 L 618.58045 63.878523 L 597.15902 51.511836 L 618.57993 39.145149 z M 640.66334 51.893724 L 662.08477 64.261445 L 640.66334 76.629682 L 619.24346 64.261445 L 640.66334 51.893724 z M 684.83067 51.893724 L 706.25107 64.261445 L 684.83067 76.629682 L 663.40924 64.261445 L 684.83067 51.893724 z M 596.49601 51.894241 L 617.91692 64.261445 L 596.49601 76.629165 L 575.07509 64.261445 L 596.49601 51.894241 z M 728.998 51.894241 L 750.41891 64.261445 L 728.998 76.629165 L 707.57708 64.261445 L 728.998 51.894241 z M 574.41312 64.643851 L 595.833 77.011571 L 574.41312 89.379292 L 552.99117 77.011571 L 574.41312 64.643851 z M 662.74675 64.643851 L 684.16869 77.011571 L 662.74675 89.379292 L 641.32531 77.011571 L 662.74675 64.643851 z M 751.08141 64.643851 L 772.50284 77.011571 L 751.08141 89.379292 L 729.66101 77.011571 L 751.08141 64.643851 z M 706.91408 64.644367 L 728.33499 77.011571 L 706.91408 89.378775 L 685.49316 77.011571 L 706.91408 64.644367 z M 618.57993 64.644884 L 640.00085 77.011571 L 618.57993 89.378258 L 597.15902 77.011571 L 618.57993 64.644884 z M 552.3292 77.393977 L 573.75063 89.761697 L 552.3292 102.12942 L 530.90776 89.761697 L 552.3292 77.393977 z M 640.66334 77.393977 L 662.08425 89.761697 L 640.66334 102.12942 L 619.24397 89.761697 L 640.66334 77.393977 z M 684.83067 77.393977 L 706.25158 89.762214 L 684.83067 102.12942 L 663.40975 89.761697 L 684.83067 77.393977 z M 773.16481 77.393977 L 794.58624 89.761697 L 773.16481 102.12942 L 751.7439 89.761697 L 773.16481 77.393977 z M 596.49601 77.394493 L 617.91641 89.761697 L 596.49601 102.1289 L 575.07561 89.761697 L 596.49601 77.394493 z M 728.998 77.394493 L 750.4184 89.761697 L 728.998 102.1289 L 707.5776 89.761697 L 728.998 77.394493 z M 530.24527 90.144103 L 551.6667 102.51182 L 530.24527 114.87954 L 508.82332 102.51182 L 530.24527 90.144103 z M 574.41312 90.144103 L 595.833 102.51182 L 574.41312 114.87954 L 552.99117 102.51182 L 574.41312 90.144103 z M 662.74675 90.144103 L 684.16869 102.51182 L 662.74726 114.87954 L 641.32531 102.51182 L 662.74675 90.144103 z M 706.91459 90.144103 L 728.33499 102.51131 L 706.91408 114.87903 L 685.49316 102.51182 L 706.91459 90.144103 z M 751.08141 90.144103 L 772.50284 102.51182 L 751.08141 114.87954 L 729.66101 102.51182 L 751.08141 90.144103 z M 795.24925 90.144103 L 816.67068 102.51182 L 795.24925 114.87954 L 773.8273 102.51182 L 795.24925 90.144103 z M 618.57993 90.145136 L 640.00085 102.51182 L 618.58045 114.87851 L 597.15902 102.51182 L 618.57993 90.145136 z M 508.16135 102.89371 L 529.58278 115.26143 L 508.16135 127.62967 L 486.74147 115.26143 L 508.16135 102.89371 z M 552.3292 102.89371 L 573.75114 115.26143 L 552.3292 127.62967 L 530.90725 115.26143 L 552.3292 102.89371 z M 640.66334 102.89371 L 662.08477 115.26143 L 640.66334 127.62967 L 619.24346 115.26143 L 640.66334 102.89371 z M 684.83067 102.89371 L 706.25107 115.26143 L 684.83067 127.62967 L 663.40924 115.26143 L 684.83067 102.89371 z M 773.16481 102.89371 L 794.58676 115.26143 L 773.16481 127.62967 L 751.74338 115.26143 L 773.16481 102.89371 z M 817.33266 102.89371 L 838.75306 115.26143 L 817.33266 127.62967 L 795.91123 115.26143 L 817.33266 102.89371 z M 596.49601 102.89423 L 617.91692 115.26143 L 596.49601 127.62915 L 575.07509 115.26143 L 596.49601 102.89423 z M 728.998 102.89423 L 750.41891 115.26143 L 728.998 127.62915 L 707.57708 115.26143 L 728.998 102.89423 z M 530.24527 115.64384 L 551.6667 128.01156 L 530.24476 140.37928 L 508.82332 128.01156 L 530.24527 115.64384 z M 574.41312 115.64384 L 595.833 128.01156 L 574.41312 140.37928 L 552.99117 128.01156 L 574.41312 115.64384 z M 662.74675 115.64384 L 684.16869 128.01156 L 662.74675 140.37928 L 641.32531 128.01156 L 662.74675 115.64384 z M 751.08141 115.64384 L 772.50284 128.01156 L 751.08141 140.37928 L 729.66101 128.01156 L 751.08141 115.64384 z M 795.24925 115.64384 L 816.67068 128.01156 L 795.24925 140.37928 L 773.8273 128.01156 L 795.24925 115.64384 z M 706.91408 115.64436 L 728.33499 128.01156 L 706.91408 140.37876 L 685.49316 128.01156 L 706.91408 115.64436 z M 839.41607 115.64436 L 860.83698 128.01156 L 839.41607 140.37876 L 817.99515 128.01156 L 839.41607 115.64436 z M 486.07846 115.64487 L 507.49886 128.01156 L 486.07794 140.37825 L 464.65755 128.01156 L 486.07846 115.64487 z M 618.57993 115.64487 L 640.00085 128.01156 L 618.57993 140.37825 L 597.15902 128.01156 L 618.57993 115.64487 z M 508.16135 128.39396 L 529.58226 140.76168 L 508.16135 153.12941 L 486.74199 140.76168 L 508.16135 128.39396 z M 552.3292 128.39396 L 573.75063 140.76168 L 552.3292 153.12941 L 530.90776 140.76168 L 552.3292 128.39396 z M 640.66334 128.39396 L 662.08425 140.76168 L 640.66334 153.12941 L 619.24397 140.76168 L 640.66334 128.39396 z M 684.83119 128.39396 L 706.2521 140.76168 L 684.83067 153.12941 L 663.40975 140.76168 L 684.83119 128.39396 z M 773.16481 128.39396 L 794.58624 140.76168 L 773.16481 153.12941 L 751.7439 140.76168 L 773.16481 128.39396 z M 817.33266 128.39396 L 838.75254 140.76168 L 817.33266 153.12941 L 795.91174 140.76168 L 817.33266 128.39396 z M 596.49601 128.39448 L 617.91641 140.76168 L 596.49601 153.12889 L 575.07561 140.76168 L 596.49601 128.39448 z M 728.998 128.39448 L 750.4184 140.76168 L 728.998 153.12889 L 707.5776 140.76168 L 728.998 128.39448 z M 861.49999 128.39448 L 882.92039 140.76168 L 861.49999 153.12889 L 840.07959 140.76168 L 861.49999 128.39448 z M 463.99402 128.395 L 485.41442 140.76168 L 463.99402 153.12837 L 442.57362 140.76168 L 463.99402 128.395 z M 441.91113 141.14409 L 463.33101 153.51181 L 441.91113 165.87953 L 420.48918 153.51181 L 441.91113 141.14409 z M 530.24527 141.14409 L 551.6667 153.51181 L 530.24527 165.87953 L 508.82332 153.51181 L 530.24527 141.14409 z M 574.41312 141.14409 L 595.833 153.51181 L 574.41312 165.87953 L 552.99117 153.51181 L 574.41312 141.14409 z M 662.74675 141.14409 L 684.16869 153.51181 L 662.74726 165.87953 L 641.32531 153.51181 L 662.74675 141.14409 z M 706.91459 141.14409 L 728.33499 153.51181 L 706.91459 165.87953 L 685.49316 153.51181 L 706.91459 141.14409 z M 751.08141 141.14409 L 772.50284 153.51181 L 751.08141 165.87953 L 729.66101 153.51181 L 751.08141 141.14409 z M 795.24925 141.14409 L 816.67068 153.51181 L 795.24925 165.87953 L 773.8273 153.51181 L 795.24925 141.14409 z M 883.5834 141.14409 L 905.00483 153.51181 L 883.5834 165.87953 L 862.163 153.51181 L 883.5834 141.14409 z M 839.41607 141.14461 L 860.83698 153.51181 L 839.41607 165.87901 L 817.99515 153.51181 L 839.41607 141.14461 z M 486.07846 141.14512 L 507.49886 153.51181 L 486.07846 165.8785 L 464.65755 153.51181 L 486.07846 141.14512 z M 618.57993 141.14512 L 640.00085 153.51181 L 618.58045 165.8785 L 597.15902 153.51181 L 618.57993 141.14512 z M 419.82721 153.8937 L 441.24915 166.26142 L 419.82721 178.62966 L 398.40526 166.26142 L 419.82721 153.8937 z M 508.16135 153.8937 L 529.58278 166.26142 L 508.16135 178.62966 L 486.74147 166.26142 L 508.16135 153.8937 z M 552.3292 153.8937 L 573.75114 166.26142 L 552.3292 178.62966 L 530.90725 166.26142 L 552.3292 153.8937 z M 640.66334 153.8937 L 662.08477 166.26142 L 640.66334 178.62966 L 619.24346 166.26142 L 640.66334 153.8937 z M 684.83119 153.8937 L 706.25262 166.26142 L 684.83067 178.62966 L 663.40924 166.26142 L 684.83119 153.8937 z M 773.16481 153.8937 L 794.58676 166.26142 L 773.16481 178.62966 L 751.74338 166.26142 L 773.16481 153.8937 z M 817.33266 153.8937 L 838.75306 166.26142 L 817.33266 178.62966 L 795.91123 166.26142 L 817.33266 153.8937 z M 905.66732 153.8937 L 927.08875 166.26142 L 905.66732 178.62966 L 884.24537 166.26142 L 905.66732 153.8937 z M 596.49601 153.89422 L 617.91692 166.26142 L 596.49601 178.62914 L 575.07509 166.26142 L 596.49601 153.89422 z M 728.998 153.89422 L 750.41891 166.26142 L 728.998 178.62914 L 707.57708 166.26142 L 728.998 153.89422 z M 861.49999 153.89422 L 882.9209 166.26142 L 861.49999 178.62914 L 840.07907 166.26142 L 861.49999 153.89422 z M 463.99402 153.89473 L 485.41493 166.26194 L 463.99402 178.62862 L 442.5731 166.26194 L 463.99402 153.89473 z M 397.74328 166.64383 L 419.16523 179.01155 L 397.74328 191.37927 L 376.32133 179.01155 L 397.74328 166.64383 z M 441.91113 166.64383 L 463.33101 179.01155 L 441.91113 191.37927 L 420.48918 179.01155 L 441.91113 166.64383 z M 530.24527 166.64383 L 551.6667 179.01155 L 530.24476 191.37927 L 508.82332 179.01155 L 530.24527 166.64383 z M 574.41312 166.64383 L 595.833 179.01155 L 574.41312 191.37927 L 552.99117 179.01155 L 574.41312 166.64383 z M 662.74675 166.64383 L 684.16869 179.01155 L 662.74675 191.37927 L 641.32531 179.01155 L 662.74675 166.64383 z M 706.91459 166.64383 L 728.33499 179.01155 L 706.91459 191.37927 L 685.49316 179.01155 L 706.91459 166.64383 z M 751.08141 166.64383 L 772.50284 179.01155 L 751.08141 191.37927 L 729.66101 179.01155 L 751.08141 166.64383 z M 795.24925 166.64383 L 816.67068 179.01155 L 795.24874 191.37927 L 773.8273 179.01155 L 795.24925 166.64383 z M 883.5834 166.64383 L 905.00483 179.01155 L 883.5834 191.37927 L 862.163 179.01155 L 883.5834 166.64383 z M 927.75073 166.64383 L 949.17267 179.01155 L 927.75073 191.37927 L 906.32929 179.01155 L 927.75073 166.64383 z M 839.41607 166.64434 L 860.83698 179.01155 L 839.41607 191.37875 L 817.99515 179.01155 L 839.41607 166.64434 z M 486.07846 166.64486 L 507.49886 179.01155 L 486.07794 191.37823 L 464.65755 179.01155 L 486.07846 166.64486 z M 618.57993 166.64486 L 640.00085 179.01155 L 618.57993 191.37823 L 597.15902 179.01155 L 618.57993 166.64486 z M 375.65936 179.39395 L 397.08027 191.76167 L 375.65936 204.12939 L 354.24 191.76167 L 375.65936 179.39395 z M 419.82721 179.39395 L 441.24864 191.76167 L 419.82721 204.12939 L 398.40578 191.76167 L 419.82721 179.39395 z M 508.16135 179.39395 L 529.58226 191.76167 L 508.16135 204.12939 L 486.74199 191.76167 L 508.16135 179.39395 z M 552.3292 179.39395 L 573.75063 191.76167 L 552.3292 204.12939 L 530.90776 191.76167 L 552.3292 179.39395 z M 640.66334 179.39395 L 662.08425 191.76167 L 640.66334 204.12939 L 619.24397 191.76167 L 640.66334 179.39395 z M 684.83067 179.39395 L 706.25158 191.76219 L 684.83067 204.12939 L 663.40975 191.76167 L 684.83067 179.39395 z M 773.16481 179.39395 L 794.58624 191.76167 L 773.16481 204.12939 L 751.7439 191.76167 L 773.16481 179.39395 z M 817.33266 179.39395 L 838.75254 191.76167 L 817.33266 204.12939 L 795.91174 191.76167 L 817.33266 179.39395 z M 905.66732 179.39395 L 927.08823 191.76167 L 905.66732 204.12939 L 884.24589 191.76167 L 905.66732 179.39395 z M 949.83465 179.39395 L 971.25453 191.76167 L 949.83465 204.12939 L 928.41373 191.76167 L 949.83465 179.39395 z M 596.49601 179.39447 L 617.91641 191.76167 L 596.49601 204.12888 L 575.07561 191.76167 L 596.49601 179.39447 z M 728.998 179.39447 L 750.4184 191.76167 L 728.998 204.12888 L 707.5776 191.76167 L 728.998 179.39447 z M 861.49999 179.39447 L 882.92039 191.76167 L 861.49999 204.12888 L 840.07959 191.76167 L 861.49999 179.39447 z M 463.99402 179.39499 L 485.41442 191.76167 L 463.99402 204.12836 L 442.57362 191.76167 L 463.99402 179.39499 z M 397.74328 192.14408 L 419.16523 204.5118 L 397.74328 216.87952 L 376.32133 204.5118 L 397.74328 192.14408 z M 441.91113 192.14408 L 463.33101 204.5118 L 441.91113 216.87952 L 420.48918 204.5118 L 441.91113 192.14408 z M 530.24527 192.14408 L 551.6667 204.5118 L 530.24527 216.87952 L 508.82332 204.5118 L 530.24527 192.14408 z M 574.41312 192.14408 L 595.833 204.5118 L 574.41312 216.87952 L 552.99117 204.5118 L 574.41312 192.14408 z M 662.74675 192.14408 L 684.16869 204.5118 L 662.74726 216.87952 L 641.32531 204.5118 L 662.74675 192.14408 z M 706.91459 192.14408 L 728.33499 204.51128 L 706.91408 216.879 L 685.49316 204.5118 L 706.91459 192.14408 z M 751.08141 192.14408 L 772.50284 204.5118 L 751.08141 216.87952 L 729.66101 204.5118 L 751.08141 192.14408 z M 795.24925 192.14408 L 816.67068 204.5118 L 795.24925 216.87952 L 773.8273 204.5118 L 795.24925 192.14408 z M 883.5834 192.14408 L 905.00483 204.5118 L 883.5834 216.87952 L 862.163 204.5118 L 883.5834 192.14408 z M 927.75073 192.14408 L 949.17267 204.5118 L 927.75124 216.87952 L 906.32929 204.5118 L 927.75073 192.14408 z M 839.41607 192.1446 L 860.83698 204.5118 L 839.41607 216.879 L 817.99515 204.5118 L 839.41607 192.1446 z M 971.91806 192.1446 L 993.33897 204.5118 L 971.91806 216.879 L 950.49714 204.5118 L 971.91806 192.1446 z M 353.57595 192.14511 L 374.99687 204.5118 L 353.57647 216.87849 L 332.15556 204.5118 L 353.57595 192.14511 z M 486.07846 192.14511 L 507.49886 204.5118 L 486.07846 216.87849 L 464.65755 204.5118 L 486.07846 192.14511 z M 618.57993 192.14511 L 640.00085 204.5118 L 618.58045 216.87849 L 597.15902 204.5118 L 618.57993 192.14511 z M 375.65936 204.89369 L 397.08079 217.26141 L 375.65936 229.62965 L 354.23948 217.26141 L 375.65936 204.89369 z M 419.82721 204.89369 L 441.24915 217.26141 L 419.82721 229.62965 L 398.40526 217.26141 L 419.82721 204.89369 z M 508.16135 204.89369 L 529.58278 217.26141 L 508.16135 229.62965 L 486.74147 217.26141 L 508.16135 204.89369 z M 552.3292 204.89369 L 573.75114 217.26141 L 552.3292 229.62965 L 530.90725 217.26141 L 552.3292 204.89369 z M 640.66334 204.89369 L 662.08477 217.26141 L 640.66334 229.62965 L 619.24346 217.26141 L 640.66334 204.89369 z M 684.83067 204.89369 L 706.25107 217.26141 L 684.83067 229.62965 L 663.40924 217.26141 L 684.83067 204.89369 z M 773.16481 204.89369 L 794.58676 217.26141 L 773.16481 229.62965 L 751.74338 217.26141 L 773.16481 204.89369 z M 817.33266 204.89369 L 838.75306 217.26141 L 817.33266 229.62965 L 795.91123 217.26141 L 817.33266 204.89369 z M 905.66732 204.89369 L 927.08875 217.26141 L 905.66732 229.62965 L 884.24537 217.26141 L 905.66732 204.89369 z M 949.83465 204.89369 L 971.25505 217.26141 L 949.83465 229.62965 L 928.41322 217.26141 L 949.83465 204.89369 z M 596.49601 204.8942 L 617.91692 217.26141 L 596.49601 229.62913 L 575.07509 217.26141 L 596.49601 204.8942 z M 728.998 204.8942 L 750.41891 217.26141 L 728.998 229.62913 L 707.57708 217.26141 L 728.998 204.8942 z M 861.49999 204.8942 L 882.9209 217.26141 L 861.49999 229.62913 L 840.07907 217.26141 L 861.49999 204.8942 z M 463.99402 204.89472 L 485.41493 217.26193 L 463.99402 229.62861 L 442.5731 217.26193 L 463.99402 204.89472 z M 397.74328 217.64381 L 419.16523 230.01153 L 397.74328 242.37977 L 376.32133 230.01153 L 397.74328 217.64381 z M 441.91113 217.64381 L 463.33101 230.01153 L 441.91113 242.37977 L 420.48918 230.01153 L 441.91113 217.64381 z M 530.24527 217.64381 L 551.6667 230.01153 L 530.24476 242.37977 L 508.82332 230.01153 L 530.24527 217.64381 z M 574.41312 217.64381 L 595.833 230.01153 L 574.41312 242.37977 L 552.99117 230.01153 L 574.41312 217.64381 z M 662.74675 217.64381 L 684.16869 230.01153 L 662.74675 242.37977 L 641.32531 230.01153 L 662.74675 217.64381 z M 751.08141 217.64381 L 772.50284 230.01153 L 751.08141 242.37977 L 729.66101 230.01153 L 751.08141 217.64381 z M 795.24925 217.64381 L 816.67068 230.01153 L 795.24874 242.37977 L 773.8273 230.01153 L 795.24925 217.64381 z M 883.5834 217.64381 L 905.00483 230.01153 L 883.5834 242.37977 L 862.163 230.01153 L 883.5834 217.64381 z M 927.75073 217.64381 L 949.17267 230.01153 L 927.75073 242.37977 L 906.32929 230.01153 L 927.75073 217.64381 z M 706.91408 217.64433 L 728.33499 230.01153 L 706.91408 242.37925 L 685.49316 230.01153 L 706.91408 217.64433 z M 839.41607 217.64433 L 860.83698 230.01153 L 839.41607 242.37925 L 817.99515 230.01153 L 839.41607 217.64433 z M 486.07846 217.64485 L 507.49886 230.01205 L 486.07846 242.37874 L 464.65755 230.01205 L 486.07846 217.64485 z M 618.57993 217.64485 L 640.00085 230.01205 L 618.57993 242.37874 L 597.15902 230.01205 L 618.57993 217.64485 z M 419.82721 230.39394 L 441.24915 242.76166 L 419.82721 255.12938 L 398.40526 242.76166 L 419.82721 230.39394 z M 508.16135 230.39394 L 529.58278 242.76166 L 508.16135 255.12938 L 486.74147 242.76166 L 508.16135 230.39394 z M 552.3292 230.39394 L 573.75114 242.76166 L 552.3292 255.12938 L 530.90725 242.76166 L 552.3292 230.39394 z M 640.66334 230.39394 L 662.08477 242.76166 L 640.66334 255.12938 L 619.24346 242.76166 L 640.66334 230.39394 z M 684.83067 230.39394 L 706.25107 242.76166 L 684.83067 255.12938 L 663.40924 242.76166 L 684.83067 230.39394 z M 773.16481 230.39394 L 794.58676 242.76166 L 773.16533 255.12938 L 751.74338 242.76166 L 773.16481 230.39394 z M 817.33266 230.39394 L 838.75306 242.76166 L 817.33266 255.12938 L 795.91123 242.76166 L 817.33266 230.39394 z M 905.66732 230.39394 L 927.08875 242.76166 L 905.6668 255.12938 L 884.24537 242.76166 L 905.66732 230.39394 z M 596.49601 230.39446 L 617.91692 242.76166 L 596.49601 255.12886 L 575.07509 242.76166 L 596.49601 230.39446 z M 728.998 230.39446 L 750.41891 242.76166 L 728.998 255.12886 L 707.57708 242.76166 L 728.998 230.39446 z M 861.49999 230.39446 L 882.9209 242.76166 L 861.49999 255.12886 L 840.07907 242.76166 L 861.49999 230.39446 z M 463.99402 230.39497 L 485.41493 242.76166 L 463.99402 255.12835 L 442.5731 242.76166 L 463.99402 230.39497 z M 441.91113 243.14407 L 463.33101 255.51179 L 441.91113 267.87951 L 420.48918 255.51179 L 441.91113 243.14407 z M 530.24527 243.14407 L 551.6667 255.51179 L 530.24527 267.87951 L 508.82332 255.51179 L 530.24527 243.14407 z M 574.41312 243.14407 L 595.833 255.51179 L 574.41312 267.87951 L 552.99117 255.51179 L 574.41312 243.14407 z M 662.74675 243.14407 L 684.16869 255.51179 L 662.74726 267.87951 L 641.32531 255.51179 L 662.74675 243.14407 z M 751.08141 243.14407 L 772.50284 255.51179 L 751.08141 267.87951 L 729.66101 255.51179 L 751.08141 243.14407 z M 795.24925 243.14407 L 816.67068 255.51179 L 795.24925 267.87951 L 773.8273 255.51179 L 795.24925 243.14407 z M 883.5834 243.14407 L 905.00483 255.51179 L 883.5834 267.87951 L 862.163 255.51179 L 883.5834 243.14407 z M 706.91408 243.14458 L 728.33499 255.51179 L 706.91408 267.87899 L 685.49316 255.51179 L 706.91408 243.14458 z M 839.41607 243.14458 L 860.83698 255.51179 L 839.41607 267.87899 L 817.99515 255.51179 L 839.41607 243.14458 z M 486.07846 243.1451 L 507.49886 255.51179 L 486.07846 267.87847 L 464.65755 255.51179 L 486.07846 243.1451 z M 618.57993 243.1451 L 640.00085 255.51179 L 618.58045 267.87847 L 597.15902 255.51179 L 618.57993 243.1451 z M 508.16135 255.89368 L 529.58278 268.2614 L 508.16135 280.62963 L 486.74147 268.2614 L 508.16135 255.89368 z M 552.3292 255.89368 L 573.75114 268.2614 L 552.3292 280.62963 L 530.90725 268.2614 L 552.3292 255.89368 z M 640.66334 255.89368 L 662.08477 268.2614 L 640.66334 280.62963 L 619.24346 268.2614 L 640.66334 255.89368 z M 684.83067 255.89368 L 706.25107 268.2614 L 684.83067 280.62963 L 663.40924 268.2614 L 684.83067 255.89368 z M 773.16481 255.89368 L 794.58676 268.2614 L 773.16481 280.62963 L 751.74338 268.2614 L 773.16481 255.89368 z M 817.33266 255.89368 L 838.75306 268.2614 L 817.33266 280.62963 L 795.91123 268.2614 L 817.33266 255.89368 z M 596.49601 255.89419 L 617.91692 268.2614 L 596.49601 280.62912 L 575.07509 268.2614 L 596.49601 255.89419 z M 728.998 255.89419 L 750.41891 268.2614 L 728.998 280.62912 L 707.57708 268.2614 L 728.998 255.89419 z M 861.49999 255.89419 L 882.9209 268.2614 L 861.49999 280.62912 L 840.07907 268.2614 L 861.49999 255.89419 z M 463.99402 255.89471 L 485.41493 268.26191 L 463.99402 280.6286 L 442.5731 268.26191 L 463.99402 255.89471 z M 530.24527 268.6438 L 551.6667 281.01152 L 530.24527 293.37976 L 508.82332 281.01152 L 530.24527 268.6438 z M 574.41312 268.6438 L 595.833 281.01152 L 574.41312 293.37976 L 552.99117 281.01152 L 574.41312 268.6438 z M 662.74675 268.6438 L 684.16869 281.01152 L 662.74675 293.37976 L 641.32531 281.01152 L 662.74675 268.6438 z M 751.08141 268.6438 L 772.50284 281.01152 L 751.08141 293.37976 L 729.66101 281.01152 L 751.08141 268.6438 z M 795.24925 268.6438 L 816.67068 281.01152 L 795.24874 293.37976 L 773.8273 281.01152 L 795.24925 268.6438 z M 706.91408 268.64432 L 728.33499 281.01152 L 706.91408 293.37924 L 685.49316 281.01152 L 706.91408 268.64432 z M 839.41607 268.64432 L 860.83698 281.01152 L 839.41607 293.37924 L 817.99515 281.01152 L 839.41607 268.64432 z M 486.07846 268.64484 L 507.49886 281.01204 L 486.07846 293.37873 L 464.65755 281.01204 L 486.07846 268.64484 z M 618.57993 268.64484 L 640.00085 281.01204 L 618.58045 293.37873 L 597.15902 281.01204 L 618.57993 268.64484 z M 508.16135 281.39393 L 529.58278 293.76165 L 508.16135 306.12937 L 486.74147 293.76165 L 508.16135 281.39393 z M 552.3292 281.39393 L 573.75114 293.76165 L 552.3292 306.12937 L 530.90725 293.76165 L 552.3292 281.39393 z M 640.66334 281.39393 L 662.08477 293.76165 L 640.66334 306.12937 L 619.24346 293.76165 L 640.66334 281.39393 z M 684.83067 281.39393 L 706.25107 293.76165 L 684.83067 306.12937 L 663.40924 293.76165 L 684.83067 281.39393 z M 773.16481 281.39393 L 794.58676 293.76165 L 773.16533 306.12937 L 751.74338 293.76165 L 773.16481 281.39393 z M 817.33266 281.39393 L 838.75306 293.76165 L 817.33266 306.12937 L 795.91123 293.76165 L 817.33266 281.39393 z M 596.49601 281.39444 L 617.91692 293.76165 L 596.49601 306.12885 L 575.07509 293.76165 L 596.49601 281.39444 z M 728.998 281.39444 L 750.41891 293.76165 L 728.998 306.12885 L 707.57708 293.76165 L 728.998 281.39444 z M 530.24527 294.14405 L 551.6667 306.51177 L 530.24527 318.8795 L 508.82332 306.51177 L 530.24527 294.14405 z M 574.41312 294.14405 L 595.833 306.51177 L 574.41312 318.8795 L 552.99117 306.51177 L 574.41312 294.14405 z M 662.74675 294.14405 L 684.16869 306.51177 L 662.74726 318.8795 L 641.32531 306.51177 L 662.74675 294.14405 z M 751.08141 294.14405 L 772.50284 306.51177 L 751.08141 318.8795 L 729.66101 306.51177 L 751.08141 294.14405 z M 795.24925 294.14405 L 816.67068 306.51177 L 795.24925 318.8795 L 773.8273 306.51177 L 795.24925 294.14405 z M 706.91408 294.14457 L 728.33499 306.51177 L 706.91408 318.87898 L 685.49316 306.51177 L 706.91408 294.14457 z M 618.57993 294.14509 L 640.00085 306.51177 L 618.58045 318.87846 L 597.15902 306.51177 L 618.57993 294.14509 z M 552.3292 306.89366 L 573.75114 319.26138 L 552.3292 331.62962 L 530.90725 319.26138 L 552.3292 306.89366 z M 640.66334 306.89366 L 662.08477 319.26138 L 640.66334 331.62962 L 619.24346 319.26138 L 640.66334 306.89366 z M 684.83067 306.89366 L 706.25107 319.26138 L 684.83067 331.62962 L 663.40924 319.26138 L 684.83067 306.89366 z M 773.16481 306.89366 L 794.58676 319.26138 L 773.16481 331.62962 L 751.74338 319.26138 L 773.16481 306.89366 z M 596.49601 306.89418 L 617.91692 319.26138 L 596.49601 331.6291 L 575.07509 319.26138 L 596.49601 306.89418 z M 728.998 306.89418 L 750.41891 319.26138 L 728.998 331.6291 L 707.57708 319.26138 L 728.998 306.89418 z M 574.41312 319.64379 L 595.833 332.01151 L 574.41312 344.37975 L 552.99117 332.01151 L 574.41312 319.64379 z M 662.74675 319.64379 L 684.16869 332.01151 L 662.74675 344.37975 L 641.32531 332.01151 L 662.74675 319.64379 z M 751.08141 319.64379 L 772.50284 332.01151 L 751.08141 344.37975 L 729.66101 332.01151 L 751.08141 319.64379 z M 706.91408 319.64431 L 728.33499 332.01151 L 706.91408 344.37923 L 685.49316 332.01151 L 706.91408 319.64431 z M 618.57993 319.64482 L 640.00085 332.01203 L 618.58045 344.37871 L 597.15902 332.01203 L 618.57993 319.64482 z M 640.66334 332.39392 L 662.08477 344.76164 L 640.66334 357.12936 L 619.24346 344.76164 L 640.66334 332.39392 z M 684.83067 332.39392 L 706.25158 344.76215 L 684.83119 357.12936 L 663.40924 344.76164 L 684.83067 332.39392 z M 596.49601 332.39443 L 617.91692 344.76164 L 596.49601 357.12884 L 575.07509 344.76164 L 596.49601 332.39443 z M 728.998 332.39443 L 750.41891 344.76164 L 728.998 357.12884 L 707.57708 344.76164 L 728.998 332.39443 z M 662.74675 345.14404 L 684.16818 357.51176 L 662.74726 369.87948 L 641.32583 357.51176 L 662.74675 345.14404 z M 706.91459 345.14404 L 728.33447 357.51176 L 706.91408 369.87897 L 685.49368 357.51176 L 706.91459 345.14404 z M 618.57993 345.14508 L 640.00033 357.51176 L 618.57993 369.87845 L 597.15953 357.51176 L 618.57993 345.14508 z M 640.66334 357.89417 L 662.08477 370.26189 L 640.66334 382.62961 L 619.24346 370.26189 L 640.66334 357.89417 z M 684.83067 357.89417 L 706.25107 370.26189 L 684.83067 382.62961 L 663.40924 370.26189 L 684.83067 357.89417 z M 662.74675 370.64378 L 684.16869 383.0115 L 662.74675 395.37974 L 641.32531 383.0115 L 662.74675 370.64378 z " />
    </g>
    <g
       id="g15"
       transform="matrix(7.8332084,0,0,7.8332084,-666.25171,-1229.5233)"
       style="display:inline;opacity:1">
      <path
         style="display:inline;opacity:1;fill:#fef1e2;fill-opacity:1;stroke:none;stroke-width:0.950701;stroke-opacity:1;-inkscape-stroke:none"
         d="m 100.45813,182.99953 8.66027,-5 -8.66027,-5.00001 -8.66026,5.00001 z"
         id="path8" />
      <path
         id="path12"
         style="display:none;opacity:1;fill:#f9e7da;fill-opacity:1;stroke:none;stroke-width:0.47535;stroke-opacity:1;-inkscape-stroke:none"
         d="m 91.797644,177.99928 v 30.00023 l 8.660456,5.00022 v -30.00024 z" />
      <path
         id="path12-4"
         style="display:none;fill:#45717c;fill-opacity:1;stroke:none;stroke-width:0.47535;stroke-opacity:1;-inkscape-stroke:none"
         d="m 109.11855,177.99928 -8.66045,5.00021 v 30.00024 l 8.66045,-5.00022 z" />
    </g>
    <g
       id="g16"
       style="display:inline;stroke:none"
       transform="translate(0.47534988,0.237675)">
      <rect
         style="display:none;opacity:1;fill:#f96d70;fill-opacity:1;stroke:none;stroke-width:0.47535;stroke-opacity:1;-inkscape-stroke:none"
         id="rect4"
         width="80.741516"
         height="21.666466"
         x="2.0008765e-07"
         y="89.761749" />
      <path
         d="m 178.32272,346.149 v -62.29331 h 7.67999 v 26.62399 h 19.96799 v -26.62399 h 7.68 V 346.149 h -7.68 V 317.47701 H 186.00271 V 346.149 Z m 47.53068,0 16.21332,-62.29331 h 10.32533 l 16.12799,62.29331 h -7.76533 l -4.09599,-16.55466 h -18.85866 l -4.096,16.55466 z m 13.48266,-23.03999 h 15.70132 l -4.77866,-19.19999 q -1.36533,-5.46134 -2.13333,-9.13067 -0.768,-3.66933 -0.93867,-4.77866 -0.17067,1.10933 -0.93867,4.77866 -0.768,3.66933 -2.13333,9.04533 z m 59.73334,23.89332 q -8.53333,0 -13.48266,-4.77866 -4.94933,-4.77867 -4.94933,-13.14133 v -28.15999 q 0,-8.36266 4.94933,-13.14133 4.94933,-4.77866 13.48266,-4.77866 8.36266,0 13.31199,4.864 4.94933,4.77866 4.94933,13.05599 h -7.67999 q 0,-5.29066 -2.816,-8.10666 -2.73067,-2.90134 -7.76533,-2.90134 -5.03467,0 -7.936,2.90134 -2.816,2.816 -2.816,8.10666 v 28.15999 q 0,5.29066 2.816,8.19199 2.90133,2.816 7.936,2.816 5.03466,0 7.76533,-2.816 2.816,-2.90133 2.816,-8.19199 h 7.67999 q 0,8.27733 -4.94933,13.14133 -4.94933,4.77866 -13.31199,4.77866 z m 32.76802,-0.85333 v -62.29331 h 7.68 v 26.79466 h 9.21599 l 13.824,-26.79466 h 8.36266 l -15.44533,30.03732 16.29866,32.25599 h -8.78933 l -14.50666,-28.75732 h -8.95999 V 346.149 Z m 51.88268,0 v -62.29331 h 35.83998 v 6.99733 h -28.24532 v 19.28533 h 25.25866 v 6.82666 h -25.25866 v 22.18666 h 28.24532 v 6.99733 z m 50.60268,0 v -62.29331 h 19.19999 q 5.54666,0 9.72799,2.304 4.18134,2.21866 6.48534,6.22933 2.30399,4.01066 2.30399,9.38666 0,6.31467 -3.24266,10.83733 -3.24267,4.52267 -8.61866,6.31467 l 12.71466,27.22132 h -8.448 L 452.24277,319.69568 H 441.91744 V 346.149 Z m 7.59466,-33.36532 h 11.60533 q 4.77866,0 7.68,-2.98667 2.90133,-3.072 2.90133,-8.02133 0,-5.03466 -2.90133,-8.02133 -2.90134,-2.98666 -7.68,-2.98666 h -11.60533 z"
         id="text1"
         style="font-size:85.3333px;font-family:'JetBrainsMono NF';-inkscape-font-specification:'JetBrainsMono NF';white-space:pre;display:inline;opacity:0.78;fill:url(#linearGradient8);stroke:url(#linearGradient13);stroke-width:4.1983"
         transform="matrix(0.24986289,0,0,0.24986289,-40.986615,21.887586)"
         aria-label="HACKER" />
      <text
         xml:space="preserve"
         transform="matrix(0.24986289,0,0,0.24986289,-40.986615,21.887586)"
         id="text1-6"
         style="font-size:85.3333px;font-family:'JetBrainsMono NF';-inkscape-font-specification:'JetBrainsMono NF';white-space:pre;shape-inside:url(#rect2-7);display:inline;fill:url(#linearGradient11);fill-opacity:1;stroke:#5b5b5b;stroke-width:2.0011;stroke-dasharray:none;stroke-opacity:1"><tspan
           x="170.38672"
           y="346.149"
           id="tspan3">HACKER</tspan></text>
    </g>
    <g
       id="g17"
       style="display:inline"
       transform="translate(-0.23768607,-0.23768263)">
      <rect
         style="display:none;fill:#f96d70;fill-opacity:1;stroke:none;stroke-width:0.47535;stroke-opacity:1;-inkscape-stroke:none"
         id="rect4-6"
         width="80.741516"
         height="21.666466"
         x="160.33582"
         y="199.73917" />
      <text
         xml:space="preserve"
         transform="matrix(0.24986289,0,0,0.24986289,126.02287,131.865)"
         id="text1-4"
         style="font-size:85.3333px;font-family:'JetBrainsMono NF';-inkscape-font-specification:'JetBrainsMono NF';white-space:pre;shape-inside:url(#rect2-3);display:inline;fill:url(#linearGradient8);fill-opacity:1;stroke:url(#linearGradient13);stroke-width:4.1983;stroke-opacity:1;-inkscape-stroke:none;font-style:normal;font-variant:normal;font-weight:normal;font-stretch:normal;line-height:normal;font-variant-ligatures:normal;font-variant-position:normal;font-variant-caps:normal;font-variant-numeric:normal;font-variant-alternates:normal;font-variant-east-asian:normal;font-feature-settings:normal;font-variation-settings:normal;text-indent:0;text-align:start;text-decoration-line:none;text-decoration-style:solid;text-decoration-color:#000000;letter-spacing:normal;word-spacing:normal;text-transform:none;writing-mode:lr-tb;direction:ltr;text-orientation:mixed;dominant-baseline:auto;baseline-shift:baseline;opacity:0.78;vector-effect:none;stroke-linecap:butt;stroke-linejoin:miter;stroke-miterlimit:4;stroke-dasharray:none;stroke-dashoffset:0;stop-color:#000000;stop-opacity:1"><tspan
           x="170.38672"
           y="346.149"
           id="tspan6"><tspan
             style="baseline-shift:baseline;vector-effect:none;stop-color:#000000;stop-opacity:1"
             id="tspan5">PLACE</tspan></tspan></text>
      <text
         xml:space="preserve"
         transform="matrix(0.24986289,0,0,0.24986289,126.02287,131.865)"
         id="text1-4-6"
         style="font-style:normal;font-variant:normal;font-weight:normal;font-stretch:normal;font-size:85.3333px;line-height:normal;font-family:'JetBrainsMono NF';-inkscape-font-specification:'JetBrainsMono NF';font-variant-ligatures:normal;font-variant-position:normal;font-variant-caps:normal;font-variant-numeric:normal;font-variant-alternates:normal;font-variant-east-asian:normal;font-feature-settings:normal;font-variation-settings:normal;text-indent:0;text-align:start;text-decoration-line:none;text-decoration-style:solid;text-decoration-color:#000000;letter-spacing:normal;word-spacing:normal;text-transform:none;writing-mode:lr-tb;direction:ltr;text-orientation:mixed;dominant-baseline:auto;baseline-shift:baseline;white-space:pre;shape-inside:url(#rect2-3-1);display:inline;vector-effect:none;fill:url(#linearGradient11-0);fill-opacity:1;stroke:#5b5b5b;stroke-width:2.0011;stroke-linecap:butt;stroke-linejoin:miter;stroke-miterlimit:4;stroke-dasharray:none;stroke-dashoffset:0;stroke-opacity:1;-inkscape-stroke:none;stop-color:#000000"><tspan
           x="170.38672"
           y="346.149"
           id="tspan8"><tspan
             style="baseline-shift:baseline;vector-effect:none;stop-color:#000000;stop-opacity:1"
             id="tspan7">PLACE</tspan></tspan></text>
    </g>
  </g>
</svg>
